<?xml version="1.0" encoding="UTF-8"?>
<svg width="24px" height="24px" viewBox="0 0 24 24" version="1.1" xmlns="http://www.w3.org/2000/svg">
    <title>USB Stick Icon</title>
    <g stroke="none" stroke-width="1" fill="none" fill-rule="evenodd">
        <g fill="#FF9900">
            <path d="M20,8 L20,19 C20,20.105 19.105,21 18,21 L6,21 C4.895,21 4,20.105 4,19 L4,8 L20,8 Z" />
            <path d="M18,3 C19.105,3 20,3.895 20,5 L20,8 L4,8 L4,5 C4,3.895 4.895,3 6,3 L18,3 Z M11,5 C10.724,5 10.5,5.224 10.5,5.5 C10.5,5.776 10.724,6 11,6 C11.276,6 11.5,5.776 11.5,5.5 C11.5,5.224 11.276,5 11,5 Z M13,5 C12.724,5 12.5,5.224 12.5,5.5 C12.5,5.776 12.724,6 13,6 C13.276,6 13.5,5.776 13.5,5.5 C13.5,5.224 13.276,5 13,5 Z" />
        </g>
    </g>
</svg>
