<?xml version="1.0" encoding="UTF-8"?>
<svg width="48px" height="48px" viewBox="0 0 48 48" version="1.1" xmlns="http://www.w3.org/2000/svg">
    <title>USB Stick Icon</title>
    <g stroke="none" stroke-width="1" fill="none" fill-rule="evenodd">
        <g fill="#FF9900">
            <path d="M40,16 L40,38 C40,40.209 38.209,42 36,42 L12,42 C9.791,42 8,40.209 8,38 L8,16 L40,16 Z" />
            <path d="M36,6 C38.209,6 40,7.791 40,10 L40,16 L8,16 L8,10 C8,7.791 9.791,6 12,6 L36,6 Z M22,10 C21.448,10 21,10.448 21,11 C21,11.552 21.448,12 22,12 C22.552,12 23,11.552 23,11 C23,10.448 22.552,10 22,10 Z M26,10 C25.448,10 25,10.448 25,11 C25,11.552 25.448,12 26,12 C26.552,12 27,11.552 27,11 C27,10.448 26.552,10 26,10 Z" />
        </g>
    </g>
</svg>
